<svg xmlns="http://www.w3.org/2000/svg" viewBox="0 0 128 128" fill="none">
  <rect width="128" height="128" rx="24" fill="#0a0a0a"/>
  <g transform="translate(32, 20)">
    <!-- Leaf shape -->
    <path d="M32 10 Q12 20, 8 45 Q12 70, 32 80 Q52 70, 56 45 Q52 20, 32 10 Z" 
          fill="#22c55e" 
          stroke="#84cc16" 
          stroke-width="2"/>
    <!-- Vein lines -->
    <path d="M32 10 L32 80" 
          stroke="#16a34a" 
          stroke-width="2" 
          stroke-linecap="round"/>
    <path d="M32 25 Q20 30, 15 40" 
          stroke="#16a34a" 
          stroke-width="1.5" 
          stroke-linecap="round" 
          opacity="0.7"/>
    <path d="M32 25 Q44 30, 49 40" 
          stroke="#16a34a" 
          stroke-width="1.5" 
          stroke-linecap="round" 
          opacity="0.7"/>
    <path d="M32 45 Q20 48, 13 55" 
          stroke="#16a34a" 
          stroke-width="1.5" 
          stroke-linecap="round" 
          opacity="0.7"/>
    <path d="M32 45 Q44 48, 51 55" 
          stroke="#16a34a" 
          stroke-width="1.5" 
          stroke-linecap="round" 
          opacity="0.7"/>
    <!-- Tech circuit elements -->
    <circle cx="25" cy="50" r="2" fill="#84cc16"/>
    <circle cx="39" cy="50" r="2" fill="#84cc16"/>
    <circle cx="32" cy="60" r="2" fill="#84cc16"/>
    <line x1="25" y1="50" x2="39" y2="50" stroke="#84cc16" stroke-width="1" opacity="0.5"/>
    <line x1="32" y1="50" x2="32" y2="60" stroke="#84cc16" stroke-width="1" opacity="0.5"/>
  </g>
</svg>